# Blender v2.82 (sub 7) OBJ File: ''
# www.blender.org
mtllib hexagon.mtl
o Circle
v 0.000000 0.000000 -1.000000
v -0.866025 0.000000 -0.500000
v -0.866025 0.000000 0.500000
v 0.000000 0.000000 1.000000
v 0.866025 0.000000 0.500000
v 0.866025 0.000000 -0.500000
v 0.000000 0.000000 -0.000000
vt 0.500000 1.000000
vt 0.500000 0.500000
vt 1.000000 0.750000
vt 0.000000 0.750000
vt 0.000000 0.250000
vt 0.500000 0.000000
vt 1.000000 0.250000
vn 0.0000 -1.0000 0.0000
usemtl None
s off
f 5/1/1 7/2/1 6/3/1
f 5/1/1 4/4/1 7/2/1
f 3/5/1 7/2/1 4/4/1
f 2/6/1 7/2/1 3/5/1
f 1/7/1 7/2/1 2/6/1
f 6/3/1 7/2/1 1/7/1
